<svg id="Component_291_1" data-name="Component 291 – 1" xmlns="http://www.w3.org/2000/svg" width="24" height="24" viewBox="0 0 24 24">
  <path id="Path_11026" data-name="Path 11026" d="M0,0H24V24H0Z" fill="none"/>
  <path id="Path_11027" data-name="Path 11027" d="M16,4a1,1,0,0,1,1,1V9.2l5.213-3.65A.5.5,0,0,1,23,5.96V18.04a.5.5,0,0,1-.5.5.506.506,0,0,1-.287-.09L17,14.8V19a1,1,0,0,1-1,1H2a1,1,0,0,1-1-1V5A1,1,0,0,1,2,4ZM15,6H3V18H15ZM9,8l4,4H10v4H8V12H5Zm12,.841-4,2.8v.718l4,2.8V8.84Z" fill="#02466a"/>
</svg>
