<svg id="Component_217_1" data-name="Component 217 – 1" xmlns="http://www.w3.org/2000/svg" width="24" height="24" viewBox="0 0 24 24">
  <rect id="Rectangle_7190" data-name="Rectangle 7190" width="24" height="24" fill="rgba(255,255,255,0)"/>
  <g id="Delivery" transform="translate(-14.465 -23.334)">
    <path id="Path_843" data-name="Path 843" d="M36.728,35.376l-1.615-2.691a1.481,1.481,0,0,0-1.27-.724H31.513l.431-1.974A.823.823,0,0,0,31.135,29H19.655a.826.826,0,0,0-.8.658l-.174.8a.168.168,0,0,0,.329.072l.174-.8a.5.5,0,0,1,.474-.4H31.135a.494.494,0,0,1,.48.6l-.461,2.109a.184.184,0,0,0-.023.053l-1.609,7.439h-7.6a1.859,1.859,0,0,0-.056-.306v-.036a1.615,1.615,0,0,0-.105-.273l-.039-.043a2.017,2.017,0,0,0-.151-.243l-.03-.036a1.645,1.645,0,0,0-.191-.211l-.033-.03a1.606,1.606,0,0,0-.227-.174l-.036-.023a1.974,1.974,0,0,0-.263-.132h-.033a1.764,1.764,0,0,0-.293-.086h-.023a1.662,1.662,0,0,0-.658,0h-.023a1.764,1.764,0,0,0-.293.086h-.033a1.974,1.974,0,0,0-.263.132l-.036.023a1.606,1.606,0,0,0-.227.174l-.033.03a1.645,1.645,0,0,0-.191.211l-.03.036a2.017,2.017,0,0,0-.151.243l-.02.039a1.616,1.616,0,0,0-.105.273v.036a1.859,1.859,0,0,0-.076.309H17.05l.6-1.757a.165.165,0,1,0-.309-.105l-.411,1.2H16.8a.658.658,0,0,0-.625.451L16,39.857h2.3a1.81,1.81,0,0,0,3.619,0h8.883a1.81,1.81,0,0,0,3.619,0H36.4l.039-.122a.658.658,0,0,0-.408-.826l.809-2.28A1.474,1.474,0,0,0,36.728,35.376Zm-16.615,5.8a1.481,1.481,0,1,1,1.481-1.481A1.481,1.481,0,0,1,20.113,41.173Zm12.5,0A1.481,1.481,0,1,1,34.1,39.693,1.481,1.481,0,0,1,32.615,41.173Zm3.915-4.656-1.069,3.01H34.425a1.858,1.858,0,0,0-.056-.306v-.036a1.731,1.731,0,0,0-.105-.273l-.039-.043a2.3,2.3,0,0,0-.151-.243l-.03-.036a1.646,1.646,0,0,0-.191-.211l-.033-.033a1.866,1.866,0,0,0-.227-.171l-.036-.023a1.645,1.645,0,0,0-.263-.132H33.26a1.764,1.764,0,0,0-.293-.086h-.023a1.645,1.645,0,0,0-.658,0h-.023a1.764,1.764,0,0,0-.293.086h-.033a1.645,1.645,0,0,0-.263.132l-.036.023a1.865,1.865,0,0,0-.227.171l-.033.033a1.645,1.645,0,0,0-.191.211l-.03.036a2.3,2.3,0,0,0-.151.243l-.02.039a1.73,1.73,0,0,0-.105.273v.036a1.859,1.859,0,0,0-.076.309h-.954l1.583-7.238h2.4a1.148,1.148,0,0,1,.987.563l1.606,2.691h0a1.152,1.152,0,0,1,.1.974Z"/>
    <path id="Path_844" data-name="Path 844" d="M65.8,41.415A.823.823,0,0,0,65.088,41H63.824a.165.165,0,0,0-.158.118l-.658,2.3a.174.174,0,0,0,.026.145.161.161,0,0,0,.132.066H65.65a.821.821,0,0,0,.714-1.231Zm.276,1.645a.49.49,0,0,1-.428.247H63.384l.566-1.974h1.138a.487.487,0,0,1,.428.25l.566.987a.494.494,0,0,1,0,.487Z" transform="translate(-31.538 -8.052)"/>
    <path id="Path_845" data-name="Path 845" d="M26.823,59a.823.823,0,1,0,.823.823A.823.823,0,0,0,26.823,59Zm0,1.316a.494.494,0,1,1,.494-.494A.494.494,0,0,1,26.823,60.316Z" transform="translate(-6.71 -20.13)"/>
    <path id="Path_846" data-name="Path 846" d="M64.823,59a.823.823,0,1,0,.823.823A.823.823,0,0,0,64.823,59Zm0,1.316a.494.494,0,1,1,.494-.494A.494.494,0,0,1,64.823,60.316Z" transform="translate(-32.207 -20.13)"/>
    <path id="Path_847" data-name="Path 847" d="M18.329,36.658h7.238a.329.329,0,0,0,0-.658H18.329a.329.329,0,1,0,0,.658Z" transform="translate(-1.342 -4.697)"/>
    <path id="Path_848" data-name="Path 848" d="M25.251,46.329A.329.329,0,0,0,24.922,46H19.329a.329.329,0,0,0,0,.658h5.593A.329.329,0,0,0,25.251,46.329Z" transform="translate(-2.013 -11.407)"/>
    <path id="Path_849" data-name="Path 849" d="M26.58,41.329A.329.329,0,0,0,26.251,41H20.329a.329.329,0,0,0,0,.658h5.922A.329.329,0,0,0,26.58,41.329Z" transform="translate(-2.684 -8.052)"/>
    <ellipse id="Ellipse_238" data-name="Ellipse 238" cy="0.509" ry="0.509" transform="translate(16.485 33.044)"/>
    <path id="Path_850" data-name="Path 850" d="M21.329,51a.329.329,0,0,0,0,.658h4.277a.329.329,0,0,0,0-.658Z" transform="translate(-3.355 -14.762)"/>
    <circle id="Ellipse_239" data-name="Ellipse 239" cx="0.509" cy="0.509" r="0.509" transform="translate(16.485 36.097)"/>
  </g>
</svg>
