<svg xmlns="http://www.w3.org/2000/svg" xmlns:xlink="http://www.w3.org/1999/xlink" width="24" height="24" viewBox="0 0 24 24">
  <defs>
    <clipPath id="clip-path">
      <rect width="24" height="24" fill="none"/>
    </clipPath>
  </defs>
  <g id="icon-24-add_to_market" data-name="icon-24-add to market" clip-path="url(#clip-path)">
    <rect id="Bounding_box" data-name="Bounding box" width="24" height="24" fill="rgba(255,255,255,0)"/>
    <path id="Icon_color" data-name="Icon color" d="M16,18H2a2,2,0,0,1-2-2V2A2,2,0,0,1,2,0H16a2,2,0,0,1,2,2V16A2,2,0,0,1,16,18ZM2,2V16H16V2ZM9.5,13h-1a.5.5,0,0,1-.5-.5V10H5.5A.5.5,0,0,1,5,9.5v-1A.5.5,0,0,1,5.5,8H8V5.5A.5.5,0,0,1,8.5,5h1a.5.5,0,0,1,.5.5V8h2.5a.5.5,0,0,1,.5.5v1a.5.5,0,0,1-.5.5H10v2.5A.5.5,0,0,1,9.5,13Z" transform="translate(3 3)"/>
  </g>
</svg>
