<svg id="icon-24-Cosmetics" xmlns="http://www.w3.org/2000/svg" width="26" height="26" viewBox="0 0 26 26">
  <circle id="Ellipse_251" data-name="Ellipse 251" cx="13" cy="13" r="13" fill="#8d8ad3" opacity="0.25"/>
  <g id="beauty-perfume-spray-icon" transform="translate(8 3)">
    <path id="Path_942" data-name="Path 942" d="M2.369,9.649H8.044l-.678,7.01H3.046l-.677-7.01ZM8.893,2.764a.149.149,0,0,1-.184-.084A.132.132,0,0,1,8.8,2.511a.985.985,0,0,1,.645.027.324.324,0,0,0,.319-.007.155.155,0,0,1,.2.022.128.128,0,0,1-.025.189.572.572,0,0,1-.591.049.727.727,0,0,0-.461-.027Zm.029-1.188a.149.149,0,0,1-.184-.084.132.132,0,0,1,.093-.169.985.985,0,0,1,.645.027.324.324,0,0,0,.319-.007.155.155,0,0,1,.2.022.128.128,0,0,1-.025.189.572.572,0,0,1-.591.049.727.727,0,0,0-.461-.027Zm0,.594a.149.149,0,0,1-.184-.084.132.132,0,0,1,.093-.169.985.985,0,0,1,.645.027.324.324,0,0,0,.319-.007.155.155,0,0,1,.2.022.128.128,0,0,1-.025.189.572.572,0,0,1-.591.049.727.727,0,0,0-.461-.027ZM3.388,4.129h.128V.584a.586.586,0,0,1,.17-.412h0A.581.581,0,0,1,4.1,0H6.279A.587.587,0,0,1,6.7.174h0A.594.594,0,0,1,6.87.591v.451H8.133a.253.253,0,0,1,.253.253V2.718a.253.253,0,0,1-.253.253H6.87V4.127h.078a.253.253,0,0,1,.253.253V6.27a3.277,3.277,0,0,1,.381.029,3.411,3.411,0,0,1,1.924.935,2.686,2.686,0,0,1,.842,1.908,2.455,2.455,0,0,1-.022.326L8.869,20.514a.253.253,0,0,1-.25.219H1.7a.254.254,0,0,1-.253-.24L.025,9.8A2.755,2.755,0,0,1,0,9.441a2.952,2.952,0,0,1,.928-2.1A3.761,3.761,0,0,1,3.053,6.3l.083-.01V4.381a.252.252,0,0,1,.253-.251Zm4.494-2.58H6.888v.918h.994V1.549ZM7.163,6.777H3.522a2.823,2.823,0,0,0-.4.027A3.265,3.265,0,0,0,1.282,7.7a2.35,2.35,0,0,0-.758,2.04l1.4,10.491H8.4L9.826,9.4a1.875,1.875,0,0,0,.017-.262,2.181,2.181,0,0,0-.69-1.549A2.883,2.883,0,0,0,7.518,6.8a2.982,2.982,0,0,0-.354-.022ZM6.279.506H4.1A.07.07,0,0,0,4.046.53h0a.079.079,0,0,0-.022.056V4.122H6.367V.592A.093.093,0,0,0,6.343.532l0,0A.093.093,0,0,0,6.279.506ZM6.7,4.634H3.641v1.63H6.7V4.634Z" fill="#8d8ad3" fill-rule="evenodd"/>
  </g>
</svg>
