<svg id="more" xmlns="http://www.w3.org/2000/svg" width="24" height="24" viewBox="0 0 24 24">
  <rect id="Rectangle_7374" data-name="Rectangle 7374" width="24" height="24" fill="rgba(255,255,255,0)"/>
  <g id="more-options-ellipsis-icon">
    <path id="Path_11050" data-name="Path 11050" d="M0,12a12,12,0,1,1,3.516,8.484A11.962,11.962,0,0,1,0,12Zm18.027,0a1.41,1.41,0,1,1-1.41-1.412A1.411,1.411,0,0,1,18.027,12ZM8.592,12A1.411,1.411,0,1,1,7.18,10.588,1.41,1.41,0,0,1,8.592,12Zm4.719,0a1.41,1.41,0,1,1-1.41-1.412A1.411,1.411,0,0,1,13.311,12ZM4.922,4.922A10.013,10.013,0,1,0,12,1.992a9.983,9.983,0,0,0-7.078,2.93Z"/>
  </g>
</svg>
