<svg id="new" xmlns="http://www.w3.org/2000/svg" width="23.911" height="23.801" viewBox="0 0 23.911 23.801">
  <path id="Path_590" data-name="Path 590" d="M23.873,11.547a.753.753,0,0,0-.587-.743l-2.192-.547,1.644-1.563a.764.764,0,0,0,.117-.938L21.681,5.763a.764.764,0,0,0-.861-.352l-2.192.625.626-2.189a.741.741,0,0,0-.352-.86l-2-1.172a.826.826,0,0,0-.939.117L14.4,3.575l-.548-2.189A.754.754,0,0,0,13.11.8H10.762a.754.754,0,0,0-.744.586L9.471,3.575,7.905,1.933a.766.766,0,0,0-.939-.117l-2,1.172a.762.762,0,0,0-.352.86l.626,2.189L3.053,5.412a.743.743,0,0,0-.861.352L1.018,7.757a.823.823,0,0,0,.117.938l1.644,1.563L.587,10.8A.753.753,0,0,0,0,11.547v2.306a.753.753,0,0,0,.587.743l2.192.547L1.135,16.706a.764.764,0,0,0-.117.938l1.174,1.993a.764.764,0,0,0,.861.352l2.192-.625-.626,2.189a.741.741,0,0,0,.352.86l2,1.172a.826.826,0,0,0,.939-.117l1.565-1.641.548,2.189a.754.754,0,0,0,.744.586H13.11a.754.754,0,0,0,.744-.586l.548-2.189,1.565,1.641a.766.766,0,0,0,.939.117l2-1.172a.762.762,0,0,0,.352-.86l-.626-2.189,2.192.625a.743.743,0,0,0,.861-.352l1.174-1.993a.823.823,0,0,0-.117-.938l-1.644-1.563,2.192-.547a.753.753,0,0,0,.587-.743Z" transform="translate(0 -0.8)" fill="#2ac760"/>
  <g id="Group_388" data-name="Group 388" transform="translate(4.594 0.001)">
    <path id="Path_591" data-name="Path 591" d="M94.57,6.037h0l13.423,13.405h0l2.192.625a.743.743,0,0,0,.861-.352l1.174-1.993a.823.823,0,0,0-.117-.938l-1.644-1.563,2.192-.547a.753.753,0,0,0,.587-.743V11.626a.753.753,0,0,0-.587-.743l-2.192-.547L112.1,8.773a.764.764,0,0,0,.117-.938l-1.174-1.993a.764.764,0,0,0-.861-.352l-2.192.625.626-2.189a.741.741,0,0,0-.352-.86l-2-1.172a.826.826,0,0,0-.939.117l-1.565,1.641-.587-2.267A.754.754,0,0,0,102.436.8h-2.348a.754.754,0,0,0-.744.586L98.8,3.575,97.231,1.933a.766.766,0,0,0-.939-.117l-2,1.172a.762.762,0,0,0-.352.86Z" transform="translate(-93.92 -0.8)" fill="#3ae374"/>
    <path id="Path_592" data-name="Path 592" d="M112.283,203.168l-2.622-4.612L108.8,203.6l8.492,8.481c0-.039,0-.039.039-.078l.548-2.189,1.565,1.641a.766.766,0,0,0,.939.117l2-1.172a.762.762,0,0,0,.352-.86l-.626-2.189,2.192.625a.785.785,0,0,0,.861-.352L114.475,198.4Z" transform="translate(-108.072 -188.747)" fill="#3ae374"/>
  </g>
  <text id="جديد" transform="translate(22.097 12.622)" fill="#fff" stroke="rgba(0,0,0,0)" stroke-width="1" font-size="11" font-family="Tajawal-Regular, Tajawal" letter-spacing="0.01em"><tspan x="-20.966" y="0">جديد</tspan></text>
</svg>
